<svg width="100" height="100" viewBox="0 0 24 24" fill="none" xmlns="http://www.w3.org/2000/svg">
  <path d="M12 2C6.48 2 2 6.48 2 12C2 17.52 6.48 22 12 22C17.52 22 22 17.52 22 12C22 6.48 17.52 2 12 2ZM16.6 15.25C16.6 15.25 14.5 17.5 12 17.5C9.5 17.5 7.4 15.25 7.4 15.25C7.4 15.25 9.5 13 12 13C14.5 13 16.6 15.25 16.6 15.25Z" fill="#4CAF50"/>
  <path d="M12 7C9.24 7 7 9.24 7 12C7 14.76 9.24 17 12 17C14.76 17 17 14.76 17 12C17 9.24 14.76 7 12 7ZM12 15C10.34 15 9 13.66 9 12C9 10.34 10.34 9 12 9C13.66 9 15 10.34 15 12C15 13.66 13.66 15 12 15Z" fill="#2E7D32"/>
</svg>